<svg width="214" height="165" viewBox="0 0 214 165" fill="none" xmlns="http://www.w3.org/2000/svg">
<path d="M98.3535 91.7206C102.866 86.7328 107.27 81.6372 110.972 75.8946C111.377 75.2475 111.864 74.8162 112.566 74.5735C117.565 72.6863 122.564 70.826 127.643 69.1814C128.67 68.8578 128.67 68.8578 128.454 69.9632C127.427 75.0319 124.617 78.8872 121.213 82.3113C118.484 85.0882 115.728 87.8382 112.782 90.8039C113.404 90.8039 113.782 90.8039 114.187 90.8039C118.997 90.8039 123.78 90.8309 128.589 90.777C129.292 90.777 129.508 90.9387 129.508 91.7206C129.481 95.1716 129.481 98.6495 129.508 102.1C129.508 102.748 129.373 103.071 128.724 102.99C128.481 102.963 128.211 103.017 127.968 103.017C115.268 103.017 102.569 103.017 89.8692 102.99C89.4369 102.99 89.0856 103.152 88.7073 103.314C81.8442 106.279 75.0081 106.549 68.253 103.044C64.3891 101.022 61.7412 97.625 59.7417 93.5539C59.4715 93.0147 59.5795 92.8799 60.1199 92.7721C64.0109 91.9632 67.9018 91.0196 71.6846 89.7794C72.171 89.6176 72.4682 89.7794 72.7924 90.2108C74.7919 92.9877 77.521 93.4461 80.4662 92.7451C83.1952 92.098 84.6543 90.022 85.3028 87.1642C85.3298 87.1103 85.3568 87.0294 85.3568 86.9755C85.0056 85.1152 86.1674 84.7647 87.4104 84.3333C90.5177 83.201 93.598 81.9877 96.6783 80.7745C97.2727 80.5319 97.5159 80.5858 97.7321 81.2868C98.6778 84.3333 98.8939 87.4338 98.3265 90.5882C98.2725 90.8848 98.2455 91.2083 98.2184 91.5049C98.1104 91.5858 98.0563 91.7206 98.1374 91.8015C98.2455 91.9632 98.2725 91.7745 98.3535 91.7206Z" fill="black" stroke="white" stroke-width="4" stroke-miterlimit="10"/>
<path d="M76.0889 78.6716C76.0889 75.5711 76.0889 72.4975 76.0889 69.424C76.0889 68.9387 76.3591 68.9926 76.6563 68.9926C77.548 68.9926 78.4126 69.0735 79.2773 68.8309C81.9253 68.076 83.6005 65.2181 83.2492 62.0098C82.952 59.3407 80.8715 57.4265 78.1694 57.3456C75.3323 57.2647 73.3058 59.0711 72.7924 62.1446C72.5492 63.6814 72.5492 63.6814 71.1172 63.6814C67.8207 63.6814 64.5513 63.6544 61.2548 63.7083C60.5523 63.7083 60.3091 63.6274 60.4442 62.7377C61.1197 57.8039 62.7409 53.4363 66.3616 50.1471C69.1177 47.6667 72.3331 46.3725 75.8187 45.8333C79.4664 45.2672 83.0601 45.5098 86.5187 46.9657C89.1667 48.0711 91.3823 49.8505 93.0576 52.3578C93.2737 52.6814 93.3818 53.0858 93.8412 52.4926C98.3806 46.5882 104.46 44.9706 111.188 45.4559C116.025 45.8064 120.267 47.6667 123.726 51.4142C123.753 51.4412 123.834 51.4412 123.969 51.4681C123.969 50.4436 123.996 49.4191 123.969 48.4216C123.942 47.9363 124.077 47.7745 124.536 47.7745C130.967 47.8015 137.425 47.8015 143.856 47.7745C144.396 47.7745 144.45 47.9902 144.45 48.4755C144.423 52.3848 144.45 56.2941 144.45 60.2034C144.45 60.6078 144.423 60.8774 143.937 60.9853C139.721 62.0098 135.587 63.3039 131.318 64.7328C131.318 63.3309 131.291 62.0368 131.318 60.7157C131.345 60.0956 131.183 59.8529 130.589 59.9069C129.832 59.9877 128.859 59.6642 128.4 60.0956C128.022 60.4461 128.535 61.5515 128.643 62.3064C129.076 65.5147 129.076 65.4877 126.265 66.5392C122.185 68.049 118.132 69.6127 114.052 71.1495C113.944 71.2034 113.836 71.3113 113.647 71.1495C114.539 68.9926 115.16 66.7279 115.052 64.3015C114.971 62.4142 114.322 60.7696 113.08 59.4485C111.431 57.6691 109.405 57.1569 107.243 57.9657C104.973 58.8284 103.974 60.8505 103.677 63.3039C103.568 64.1397 103.541 65.0294 103.758 65.8652C103.947 66.5931 103.677 66.6471 103.109 66.6471C100.65 66.6201 98.1914 66.6471 95.7056 66.6201C95.0841 66.6201 94.7598 66.7819 94.5437 67.4559C93.7331 69.8284 92.1929 71.5539 90.1934 73.1176C92.7333 74.0882 94.7058 75.652 96.1109 78.2132C93.7601 79.076 91.4093 79.9657 89.0856 80.8015C87.7616 81.2868 86.4376 81.7181 85.1407 82.2304C84.7894 82.3652 84.6003 82.3652 84.3571 82.0147C82.4116 78.9951 79.7907 77.8897 76.4672 78.6716C76.4131 78.6446 76.278 78.6446 76.0889 78.6716Z" fill="black" stroke="white" stroke-width="4" stroke-miterlimit="10"/>
<path d="M91.6795 125.853C96.7593 130.167 95.8677 133.779 95.5164 134.103C95.1111 134.48 91.3013 135.505 86.2215 131.191C81.1417 126.877 77.1427 118.466 77.1427 118.466C77.1427 118.466 86.5997 121.539 91.6795 125.853Z" fill="url(#paint0_linear_1_57)"/>
<path d="M85.6811 141.895C92.4902 140.681 93.8141 137.203 93.7331 136.745C93.625 136.233 90.977 133.51 84.1679 134.723C77.3588 135.936 69.0907 141.113 69.0907 141.113C69.0907 141.113 78.872 143.108 85.6811 141.895Z" fill="url(#paint1_linear_1_57)"/>
<path d="M76.5482 120.703C79.6285 125.988 77.629 128.98 77.2237 129.169C76.7374 129.412 72.9816 129.223 69.9013 123.939C66.821 118.654 66.0374 110 66.0374 110C66.0374 110 73.4409 115.419 76.5482 120.703Z" fill="url(#paint2_linear_1_57)"/>
<path d="M65.7672 133.375C72.279 134.211 74.6568 131.461 74.7109 131.029C74.7919 130.544 73.3328 127.363 66.821 126.527C60.3091 125.691 51.1492 128.01 51.1492 128.01C51.1492 128.01 59.2553 132.539 65.7672 133.375Z" fill="url(#paint3_linear_1_57)"/>
<path d="M64.3081 112.831C65.6321 118.223 63.0381 120.434 62.6058 120.515C62.1194 120.623 58.823 119.625 57.499 114.206C56.175 108.814 57.8232 100.941 57.8232 100.941C57.8232 100.941 62.9841 107.412 64.3081 112.831Z" fill="url(#paint4_linear_1_57)"/>
<path d="M51.3114 121.647C56.8775 123.858 59.7146 121.944 59.9038 121.566C60.0929 121.135 59.6606 118.007 54.0944 115.797C48.5283 113.586 39.7737 113.586 39.7737 113.586C39.7737 113.586 45.7452 119.463 51.3114 121.647Z" fill="url(#paint5_linear_1_57)"/>
<path d="M55.2293 102.828C55.3374 107.924 52.5543 109.461 52.149 109.461C51.6896 109.461 48.9066 108.005 48.8255 102.909C48.7174 97.8137 51.7977 91.0196 51.7977 91.0196C51.7977 91.0196 55.1212 97.7328 55.2293 102.828Z" fill="url(#paint6_linear_1_57)"/>
<path d="M41.7192 108.598C46.2856 111.51 49.2308 110.27 49.474 109.973C49.7442 109.623 49.9604 106.711 45.421 103.799C40.8545 100.887 32.9646 99.4044 32.9646 99.4044C32.9646 99.4044 37.1528 105.686 41.7192 108.598Z" fill="url(#paint7_linear_1_57)"/>
<path d="M49.528 93.2034C48.0689 97.7868 45.1237 98.4608 44.7725 98.3799C44.3672 98.2721 42.3136 96.277 43.7457 91.6936C45.2048 87.1103 49.9874 81.799 49.9874 81.799C49.9874 81.799 50.9601 88.6201 49.528 93.2034Z" fill="url(#paint8_linear_1_57)"/>
<path d="M35.6937 94.9828C38.9091 98.7573 41.9083 98.3799 42.2056 98.1642C42.5568 97.9216 43.6376 95.3603 40.4222 91.6127C37.2068 87.8382 30.5869 84.549 30.5869 84.549C30.5869 84.549 32.5053 91.2083 35.6937 94.9828Z" fill="url(#paint9_linear_1_57)"/>
<path d="M47.4205 82.3113C45.2318 86.4632 42.3136 86.6789 41.9624 86.5172C41.5841 86.3554 39.9899 84.1446 42.1785 79.9926C44.3672 75.8407 49.8793 71.5 49.8793 71.5C49.8793 71.5 49.6091 78.1593 47.4205 82.3113Z" fill="url(#paint10_linear_1_57)"/>
<path d="M33.9644 81.9338C36.3422 85.978 39.2874 86.0858 39.5846 85.924C39.9629 85.7353 41.449 83.4706 39.0712 79.4265C36.6934 75.3824 30.9922 71.2304 30.9922 71.2304C30.9922 71.2304 31.5866 77.8897 33.9644 81.9338Z" fill="url(#paint11_linear_1_57)"/>
<path d="M46.4477 71.9853C43.7997 75.2745 41.2058 75.0049 40.9356 74.8162C40.6384 74.6005 39.6657 72.4436 42.3136 69.1814C44.9616 65.8922 50.5548 62.9534 50.5548 62.9534C50.5548 62.9534 49.0957 68.6961 46.4477 71.9853Z" fill="url(#paint12_linear_1_57)"/>
<path d="M34.802 69.6397C36.126 73.5221 38.6659 74.0613 38.9901 73.9804C39.3414 73.8726 41.0437 72.1201 39.7197 68.2378C38.3957 64.3554 34.1535 59.8799 34.1535 59.8799C34.1535 59.8799 33.451 65.7304 34.802 69.6397Z" fill="url(#paint13_linear_1_57)"/>
<path d="M48.4472 61.875C45.5561 64.5711 43.2323 64.0319 43.0162 63.8431C42.773 63.6274 42.1785 61.5245 45.0427 58.8554C47.9338 56.1593 53.446 54.1103 53.446 54.1103C53.446 54.1103 51.3384 59.1789 48.4472 61.875Z" fill="url(#paint14_linear_1_57)"/>
<path d="M38.1255 58.3971C38.801 62.1176 41.0437 62.8725 41.3409 62.8456C41.6922 62.7917 43.4755 61.3897 42.8 57.6691C42.1245 53.9485 38.8821 49.3922 38.8821 49.3922C38.8821 49.3922 37.423 54.6765 38.1255 58.3971Z" fill="url(#paint15_linear_1_57)"/>
<path d="M51.8788 52.6544C48.9606 54.5417 47.0692 53.7598 46.9341 53.5711C46.772 53.3554 46.6098 51.4951 49.501 49.5809C52.4192 47.6936 57.472 46.6961 57.472 46.6961C57.472 46.6961 54.7699 50.7402 51.8788 52.6544Z" fill="url(#paint16_linear_1_57)"/>
<path d="M43.6376 48.2328C43.6106 51.4951 45.3939 52.4657 45.6371 52.4657C45.9343 52.4657 47.6907 51.5221 47.7447 48.2598C47.7717 44.9975 45.7722 40.6569 45.7722 40.6569C45.7722 40.6569 43.6917 44.9706 43.6376 48.2328Z" fill="url(#paint17_linear_1_57)"/>
<path d="M56.0129 44.6471C53.1217 45.9951 51.5545 45.0784 51.4465 44.8897C51.3114 44.674 51.4465 42.9755 54.3106 41.6275C57.2018 40.2794 61.8492 39.9828 61.8492 39.9828C61.8492 39.9828 58.904 43.299 56.0129 44.6471Z" fill="url(#paint18_linear_1_57)"/>
<path d="M49.2578 39.7132C48.7715 42.625 50.2306 43.7304 50.4467 43.7574C50.7169 43.7843 52.4462 43.1642 52.9326 40.2255C53.4189 37.3137 52.2571 33.1618 52.2571 33.1618C52.2571 33.1618 49.7712 36.8015 49.2578 39.7132Z" fill="url(#paint19_linear_1_57)"/>
<path d="M61.3359 38.3922C58.4987 39.228 57.2018 38.1765 57.1477 37.9878C57.0667 37.7721 57.445 36.2623 60.2821 35.3995C63.1192 34.5637 67.3884 34.9142 67.3884 34.9142C67.3884 34.9142 64.173 37.5294 61.3359 38.3922Z" fill="url(#paint20_linear_1_57)"/>
<path d="M55.9859 33C55.0672 35.5882 56.229 36.7745 56.4182 36.8284C56.6614 36.9093 58.3096 36.5588 59.2283 33.9706C60.147 31.3824 59.7417 27.4731 59.7417 27.4731C59.7417 27.4731 56.9045 30.4118 55.9859 33Z" fill="url(#paint21_linear_1_57)"/>
<path d="M67.1992 32.7034C64.6593 33.1348 63.6596 32.0833 63.6326 31.8946C63.6056 31.7059 64.1189 30.4387 66.6588 30.0073C69.1987 29.6029 72.8465 30.3848 72.8465 30.3848C72.8465 30.3848 69.7662 32.299 67.1992 32.7034Z" fill="url(#paint22_linear_1_57)"/>
<path d="M63.3083 27.5C62.1735 29.6299 63.0111 30.7623 63.2003 30.8431C63.3894 30.924 64.8755 30.8162 66.0104 28.6863C67.1452 26.5564 67.3073 23.1324 67.3073 23.1324C67.3073 23.1324 64.4432 25.3701 63.3083 27.5Z" fill="url(#paint23_linear_1_57)"/>
<path d="M74.5487 27.5539C72.3871 27.7427 71.6306 26.7721 71.6306 26.6373C71.6035 26.4755 72.171 25.451 74.3326 25.2623C76.4942 25.0735 79.4934 25.9902 79.4934 25.9902C79.4934 25.9902 76.7104 27.3652 74.5487 27.5539Z" fill="url(#paint24_linear_1_57)"/>
<path d="M71.6846 22.8897C70.5768 24.5883 71.1712 25.6128 71.3063 25.6936C71.4684 25.7745 72.7114 25.7745 73.8462 24.076C74.954 22.3775 75.3864 19.5196 75.3864 19.5196C75.3864 19.5196 72.8194 21.1912 71.6846 22.8897Z" fill="url(#paint25_linear_1_57)"/>
<path d="M81.1687 24.2377C79.2232 23.9951 78.7909 23.0245 78.8179 22.9167C78.845 22.7819 79.5475 21.973 81.4659 22.2157C83.4114 22.4583 85.8162 23.7794 85.8162 23.7794C85.8162 23.7794 83.1141 24.4804 81.1687 24.2377Z" fill="url(#paint26_linear_1_57)"/>
<path d="M79.7096 19.6544C78.3586 20.9485 78.6828 21.9461 78.7639 22.027C78.872 22.1348 79.9798 22.3505 81.3308 21.0564C82.6818 19.7623 83.6545 17.3358 83.6545 17.3358C83.6545 17.3358 81.0606 18.3873 79.7096 19.6544Z" fill="url(#paint27_linear_1_57)"/>
<path d="M84.7083 19.1961C83.2492 19.8431 83.1682 20.7059 83.2222 20.8137C83.2763 20.9216 84.0599 21.3799 85.5189 20.7328C86.978 20.0858 88.5182 18.4412 88.5182 18.4412C88.5182 18.4412 86.1674 18.549 84.7083 19.1961Z" fill="url(#paint28_linear_1_57)"/>
<path d="M117.862 125.853C112.782 130.167 113.674 133.779 114.025 134.103C114.431 134.48 118.24 135.505 123.32 131.191C128.4 126.877 132.399 118.466 132.399 118.466C132.399 118.466 122.942 121.539 117.862 125.853Z" fill="url(#paint29_linear_1_57)"/>
<path d="M123.861 141.895C117.052 140.681 115.728 137.203 115.809 136.745C115.917 136.233 118.565 133.51 125.374 134.723C132.183 135.936 140.451 141.113 140.451 141.113C140.451 141.113 130.67 143.108 123.861 141.895Z" fill="url(#paint30_linear_1_57)"/>
<path d="M132.993 120.703C129.913 125.988 131.913 128.98 132.318 129.169C132.804 129.412 136.56 129.223 139.64 123.939C142.721 118.654 143.504 110 143.504 110C143.504 110 136.101 115.419 132.993 120.703Z" fill="url(#paint31_linear_1_57)"/>
<path d="M143.774 133.375C137.263 134.211 134.885 131.461 134.831 131.029C134.75 130.544 136.209 127.363 142.721 126.527C149.233 125.691 158.392 128.01 158.392 128.01C158.392 128.01 150.286 132.539 143.774 133.375Z" fill="url(#paint32_linear_1_57)"/>
<path d="M145.234 112.831C143.91 118.223 146.504 120.434 146.936 120.515C147.422 120.623 150.719 119.625 152.043 114.206C153.367 108.814 151.718 100.941 151.718 100.941C151.718 100.941 146.558 107.412 145.234 112.831Z" fill="url(#paint33_linear_1_57)"/>
<path d="M158.23 121.647C152.664 123.858 149.827 121.944 149.638 121.566C149.449 121.135 149.881 118.007 155.447 115.797C161.013 113.586 169.768 113.586 169.768 113.586C169.768 113.586 163.796 119.463 158.23 121.647Z" fill="url(#paint34_linear_1_57)"/>
<path d="M154.339 102.828C154.231 107.924 157.014 109.461 157.42 109.461C157.879 109.461 160.662 108.005 160.743 102.909C160.851 97.8137 157.771 91.0196 157.771 91.0196C157.771 91.0196 154.42 97.7328 154.339 102.828Z" fill="url(#paint35_linear_1_57)"/>
<path d="M167.822 108.598C163.256 111.51 160.311 110.27 160.068 109.973C159.797 109.623 159.581 106.711 164.121 103.799C168.687 100.887 176.577 99.4044 176.577 99.4044C176.577 99.4044 172.389 105.686 167.822 108.598Z" fill="url(#paint36_linear_1_57)"/>
<path d="M160.014 93.2034C161.473 97.7868 164.418 98.4608 164.769 98.3799C165.174 98.2721 167.228 96.277 165.796 91.6936C164.337 87.1103 159.554 81.799 159.554 81.799C159.554 81.799 158.582 88.6201 160.014 93.2034Z" fill="url(#paint37_linear_1_57)"/>
<path d="M173.848 94.9828C170.633 98.7573 167.633 98.3799 167.336 98.1642C166.985 97.9216 165.904 95.3603 169.119 91.6127C172.335 87.8382 178.955 84.549 178.955 84.549C178.955 84.549 177.036 91.2083 173.848 94.9828Z" fill="url(#paint38_linear_1_57)"/>
<path d="M162.121 82.3113C164.31 86.4632 167.228 86.6789 167.579 86.5172C167.958 86.3554 169.552 84.1446 167.363 79.9926C165.174 75.8407 159.662 71.5 159.662 71.5C159.662 71.5 159.933 78.1593 162.121 82.3113Z" fill="url(#paint39_linear_1_57)"/>
<path d="M175.577 81.9338C173.199 85.978 170.254 86.0858 169.957 85.924C169.579 85.7353 168.093 83.4706 170.47 79.4265C172.848 75.3824 178.549 71.2304 178.549 71.2304C178.549 71.2304 177.955 77.8897 175.577 81.9338Z" fill="url(#paint40_linear_1_57)"/>
<path d="M163.094 71.9853C165.742 75.2745 168.336 75.0049 168.606 74.8162C168.903 74.6005 169.876 72.4436 167.228 69.1814C164.58 65.8922 158.987 62.9534 158.987 62.9534C158.987 62.9534 160.446 68.6961 163.094 71.9853Z" fill="url(#paint41_linear_1_57)"/>
<path d="M174.767 69.6397C173.443 73.5221 170.903 74.0613 170.579 73.9804C170.227 73.8726 168.525 72.1201 169.849 68.2378C171.173 64.3554 175.415 59.8799 175.415 59.8799C175.415 59.8799 176.091 65.7304 174.767 69.6397Z" fill="url(#paint42_linear_1_57)"/>
<path d="M161.094 61.875C163.986 64.5711 166.309 64.0319 166.525 63.8431C166.769 63.6274 167.363 61.5245 164.499 58.8554C161.608 56.1593 156.096 54.1103 156.096 54.1103C156.096 54.1103 158.23 59.1789 161.094 61.875Z" fill="url(#paint43_linear_1_57)"/>
<path d="M171.416 58.3971C170.741 62.1176 168.498 62.8725 168.201 62.8456C167.849 62.7917 166.066 61.3897 166.742 57.6691C167.417 53.9485 170.66 49.3922 170.66 49.3922C170.66 49.3922 172.119 54.6765 171.416 58.3971Z" fill="url(#paint44_linear_1_57)"/>
<path d="M157.69 52.6544C160.608 54.5417 162.499 53.7598 162.635 53.5711C162.797 53.3554 162.959 51.4951 160.068 49.5809C157.149 47.6936 152.097 46.6961 152.097 46.6961C152.097 46.6961 154.772 50.7402 157.69 52.6544Z" fill="url(#paint45_linear_1_57)"/>
<path d="M165.904 48.2328C165.931 51.4951 164.148 52.4657 163.905 52.4657C163.607 52.4657 161.851 51.5221 161.797 48.2598C161.77 44.9975 163.769 40.6569 163.769 40.6569C163.769 40.6569 165.877 44.9706 165.904 48.2328Z" fill="url(#paint46_linear_1_57)"/>
<path d="M153.529 44.6471C156.42 45.9951 157.987 45.0784 158.095 44.8897C158.23 44.674 158.095 42.9755 155.231 41.6275C152.34 40.2794 147.692 39.9828 147.692 39.9828C147.692 39.9828 150.638 43.299 153.529 44.6471Z" fill="url(#paint47_linear_1_57)"/>
<path d="M160.284 39.7132C160.77 42.625 159.311 43.7304 159.095 43.7574C158.825 43.7843 157.095 43.1642 156.609 40.2255C156.123 37.3137 157.285 33.1618 157.285 33.1618C157.285 33.1618 159.77 36.8015 160.284 39.7132Z" fill="url(#paint48_linear_1_57)"/>
<path d="M148.206 38.3922C151.043 39.228 152.34 38.1765 152.394 37.9878C152.475 37.7721 152.097 36.2623 149.26 35.3995C146.422 34.5637 142.153 34.9142 142.153 34.9142C142.153 34.9142 145.396 37.5294 148.206 38.3922Z" fill="url(#paint49_linear_1_57)"/>
<path d="M153.556 33C154.474 35.5882 153.313 36.7745 153.123 36.8284C152.88 36.9093 151.232 36.5588 150.313 33.9706C149.395 31.3824 149.8 27.4731 149.8 27.4731C149.8 27.4731 152.637 30.4118 153.556 33Z" fill="url(#paint50_linear_1_57)"/>
<path d="M142.342 32.7034C144.882 33.1348 145.882 32.0833 145.909 31.8946C145.936 31.7059 145.423 30.4387 142.883 30.0073C140.343 29.6029 136.695 30.3848 136.695 30.3848C136.695 30.3848 139.803 32.299 142.342 32.7034Z" fill="url(#paint51_linear_1_57)"/>
<path d="M146.233 27.5C147.368 29.6299 146.531 30.7623 146.341 30.8431C146.152 30.924 144.666 30.8162 143.531 28.6863C142.396 26.5564 142.234 23.1324 142.234 23.1324C142.234 23.1324 145.098 25.3701 146.233 27.5Z" fill="url(#paint52_linear_1_57)"/>
<path d="M135.02 27.5539C137.182 27.7427 137.938 26.7721 137.938 26.6373C137.965 26.4755 137.398 25.451 135.236 25.2623C133.075 25.0735 130.075 25.9902 130.075 25.9902C130.075 25.9902 132.831 27.3652 135.02 27.5539Z" fill="url(#paint53_linear_1_57)"/>
<path d="M137.857 22.8897C138.965 24.5883 138.37 25.6128 138.235 25.6936C138.073 25.7745 136.83 25.7745 135.695 24.076C134.588 22.3775 134.155 19.5196 134.155 19.5196C134.155 19.5196 136.722 21.1912 137.857 22.8897Z" fill="url(#paint54_linear_1_57)"/>
<path d="M128.373 24.2377C130.318 23.9951 130.751 23.0245 130.724 22.9167C130.697 22.7819 129.994 21.973 128.076 22.2157C126.13 22.4583 123.726 23.7794 123.726 23.7794C123.726 23.7794 126.428 24.4804 128.373 24.2377Z" fill="url(#paint55_linear_1_57)"/>
<path d="M129.832 19.6544C131.183 20.9485 130.859 21.9461 130.778 22.027C130.67 22.1348 129.562 22.3505 128.211 21.0564C126.86 19.7623 125.887 17.3358 125.887 17.3358C125.887 17.3358 128.481 18.3873 129.832 19.6544Z" fill="url(#paint56_linear_1_57)"/>
<path d="M124.833 19.1961C126.292 19.8431 126.373 20.7059 126.319 20.8137C126.265 20.9216 125.482 21.3799 124.023 20.7328C122.564 20.0858 121.023 18.4412 121.023 18.4412C121.023 18.4412 123.374 18.549 124.833 19.1961Z" fill="url(#paint57_linear_1_57)"/>
<path d="M94.4356 135.855C94.4356 135.855 100.515 138.605 103.649 141.814C106.243 144.483 108.972 147.26 110.405 150.576C110.405 150.576 112.215 150.226 112.971 149.605C112.971 149.605 105.406 138.282 94.922 135.181C94.922 135.181 94.3005 134.993 94.4356 135.855Z" fill="url(#paint58_linear_1_57)"/>
<path d="M114.647 135.855C114.647 135.855 108.567 138.605 105.433 141.814C102.839 144.483 100.11 147.26 98.6778 150.576C98.6778 150.576 96.8674 150.226 96.1109 149.605C96.1109 149.605 103.677 138.282 114.16 135.181C114.133 135.181 114.755 134.993 114.647 135.855Z" fill="url(#paint59_linear_1_57)"/>
<path d="M144.531 83.848C144.531 89.9142 144.504 95.9804 144.558 102.047C144.558 102.882 144.315 103.071 143.585 103.044C139.83 102.99 136.074 103.017 132.318 103.044C131.588 103.044 131.345 102.855 131.345 102.02C131.372 90.9926 131.372 79.9657 131.345 68.9387C131.345 68.1569 131.588 67.8872 132.237 67.6985C135.993 66.5662 139.803 65.5956 143.639 64.7328C144.369 64.5711 144.531 64.7598 144.531 65.5686C144.504 71.6618 144.531 77.7549 144.531 83.848Z" fill="black" stroke="white" stroke-width="4" stroke-miterlimit="10"/>
<path d="M143.423 125.664H65.1727C64.3891 125.664 63.7407 125.017 63.7407 124.235V112.373C63.7407 111.591 64.3891 110.944 65.1727 110.944H143.423C144.207 110.944 144.855 111.591 144.855 112.373V124.235C144.882 125.017 144.234 125.664 143.423 125.664Z" fill="black" stroke="#FBB03B" stroke-width="4" stroke-miterlimit="10"/>
<path d="M86.7078 114.341L86.5187 115.608C85.4109 115.554 84.4381 115.527 83.5194 115.527C83.4924 115.931 83.4384 116.578 83.3573 117.441C84.1409 117.441 84.9515 117.414 85.8432 117.387L85.7081 118.6C84.8434 118.574 84.0328 118.547 83.2492 118.547C83.1682 119.328 83.1141 120.083 83.0601 120.757C84.0598 120.757 85.1677 120.73 86.3295 120.65L86.1404 121.944H81.4119C81.4929 121.404 81.6551 120.083 81.8982 117.98C82.0333 116.578 82.1414 115.365 82.1414 114.368H86.7078V114.341Z" fill="url(#paint60_linear_1_57)"/>
<path d="M94.0573 114.341C94.0573 114.691 93.4899 115.985 92.355 118.196C91.2202 120.407 90.6258 121.647 90.5987 121.944H89.0856C89.0856 121.35 88.8154 120.083 88.275 118.196C87.7346 116.282 87.4644 115.015 87.4644 114.368H89.1937C89.1937 114.907 89.3558 115.931 89.68 117.414C90.0043 118.897 90.1664 119.868 90.1664 120.326H90.2475C90.2745 120.137 90.6258 119.194 91.3553 117.549C92.0849 115.877 92.4361 114.826 92.4361 114.368H94.0573V114.341Z" fill="url(#paint61_linear_1_57)"/>
<path d="M99.5694 114.341L99.3803 115.608C98.2725 115.554 97.2998 115.527 96.3811 115.527C96.354 115.931 96.3 116.578 96.2189 117.441C97.0025 117.441 97.8131 117.414 98.7048 117.387L98.5697 118.6C97.705 118.574 96.8944 118.547 96.1109 118.547C96.0298 119.328 95.9758 120.083 95.9217 120.757C96.9215 120.757 98.0293 120.73 99.1912 120.65L99.002 121.944H94.2735C94.3545 121.404 94.5167 120.083 94.7599 117.98C94.895 116.578 95.003 115.365 95.003 114.368H99.5694V114.341Z" fill="url(#paint62_linear_1_57)"/>
<path d="M107.054 114.341C106.973 114.772 106.838 115.985 106.595 117.953C106.433 119.409 106.324 120.73 106.243 121.917H104.865C104.865 121.728 104.433 120.838 103.541 119.248C102.623 117.576 102.136 116.471 102.028 115.931H101.947C102.001 116.228 102.001 116.525 102.001 116.821C102.001 117.279 101.974 117.819 101.893 118.493C101.785 119.436 101.704 120.596 101.623 121.944H100.272C100.353 121.404 100.515 120.083 100.758 117.98C100.893 116.551 101.002 115.365 101.002 114.368H102.704C102.704 114.637 103.109 115.5 103.893 117.01C104.73 118.601 105.19 119.625 105.271 120.11H105.352C105.298 119.895 105.271 119.652 105.271 119.382C105.271 118.843 105.298 118.223 105.379 117.522C105.487 116.39 105.568 115.338 105.568 114.341H107.054Z" fill="url(#paint63_linear_1_57)"/>
<path d="M113.917 114.341L113.755 115.581C113.026 115.527 112.323 115.5 111.674 115.5C111.62 115.85 111.539 116.659 111.404 117.953C111.242 119.463 111.134 120.784 111.107 121.917H109.486C109.567 121.351 109.729 120.029 109.972 117.953C110.053 117.064 110.134 116.255 110.215 115.5C109.702 115.5 108.972 115.527 108.054 115.581L108.243 114.314H113.917V114.341Z" fill="url(#paint64_linear_1_57)"/>
<path d="M121.213 117.603C121.213 118.816 120.834 119.868 120.051 120.757C119.267 121.674 118.294 122.132 117.133 122.132C116.241 122.132 115.511 121.809 114.944 121.162C114.377 120.515 114.079 119.679 114.079 118.708C114.079 117.495 114.458 116.444 115.241 115.527C116.025 114.61 116.997 114.179 118.159 114.179C119.051 114.179 119.781 114.502 120.348 115.15C120.915 115.797 121.213 116.632 121.213 117.603ZM119.672 117.738C119.672 117.037 119.51 116.498 119.159 116.066C118.808 115.662 118.403 115.446 117.889 115.446C117.214 115.446 116.673 115.77 116.268 116.417C115.863 117.064 115.646 117.792 115.646 118.574C115.646 119.275 115.809 119.814 116.16 120.245C116.511 120.65 116.916 120.865 117.43 120.865C118.105 120.865 118.646 120.542 119.051 119.868C119.456 119.221 119.672 118.493 119.672 117.738Z" fill="url(#paint65_linear_1_57)"/>
<path d="M127.211 114.422L126.86 115.716C126.373 115.527 125.86 115.419 125.266 115.419C124.32 115.419 123.861 115.716 123.861 116.282C123.861 116.498 123.969 116.686 124.158 116.848C124.347 116.983 124.698 117.172 125.212 117.414C126.401 117.953 127.022 118.708 127.022 119.706C127.022 121.35 125.887 122.159 123.644 122.159C122.942 122.159 122.293 122.078 121.699 121.89L122.104 120.596C122.672 120.811 123.239 120.919 123.753 120.919C124.266 120.919 124.644 120.892 124.887 120.811C125.32 120.676 125.536 120.407 125.536 120.029C125.536 119.76 125.428 119.544 125.185 119.328C124.968 119.14 124.59 118.924 124.023 118.654C122.942 118.142 122.402 117.441 122.402 116.525C122.402 115.716 122.672 115.123 123.239 114.772C123.807 114.422 124.509 114.233 125.374 114.233C126.13 114.233 126.725 114.287 127.211 114.422Z" fill="url(#paint66_linear_1_57)"/>
<path d="M45.475 102.262C46.4002 102.262 47.1503 101.623 47.1503 100.833C47.1503 100.044 46.4002 99.4044 45.475 99.4044C44.5498 99.4044 43.7998 100.044 43.7998 100.833C43.7998 101.623 44.5498 102.262 45.475 102.262Z" fill="#ED1C24"/>
<path d="M167.714 90.5074C168.64 90.5074 169.39 89.8676 169.39 89.0784C169.39 88.2893 168.64 87.6495 167.714 87.6495C166.789 87.6495 166.039 88.2893 166.039 89.0784C166.039 89.8676 166.789 90.5074 167.714 90.5074Z" fill="#ED1C24"/>
<path d="M164.229 56.7255C165.154 56.7255 165.904 56.0857 165.904 55.2966C165.904 54.5074 165.154 53.8676 164.229 53.8676C163.304 53.8676 162.554 54.5074 162.554 55.2966C162.554 56.0857 163.304 56.7255 164.229 56.7255Z" fill="#ED1C24"/>
<path d="M140.505 29.2525C141.43 29.2525 142.18 28.6127 142.18 27.8235C142.18 27.0344 141.43 26.3946 140.505 26.3946C139.58 26.3946 138.83 27.0344 138.83 27.8235C138.83 28.6127 139.58 29.2525 140.505 29.2525Z" fill="#ED1C24"/>
<path d="M40.3952 78.6176C41.3204 78.6176 42.0705 77.9779 42.0705 77.1887C42.0705 76.3995 41.3204 75.7598 40.3952 75.7598C39.47 75.7598 38.7199 76.3995 38.7199 77.1887C38.7199 77.9779 39.47 78.6176 40.3952 78.6176Z" fill="#ED1C24"/>
<path d="M55.2293 40.1446C56.1545 40.1446 56.9045 39.5049 56.9045 38.7157C56.9045 37.9265 56.1545 37.2868 55.2293 37.2868C54.3041 37.2868 53.554 37.9265 53.554 38.7157C53.554 39.5049 54.3041 40.1446 55.2293 40.1446Z" fill="#ED1C24"/>
<path d="M45.6912 56.7255C46.6164 56.7255 47.3664 56.0857 47.3664 55.2966C47.3664 54.5074 46.6164 53.8676 45.6912 53.8676C44.7659 53.8676 44.0159 54.5074 44.0159 55.2966C44.0159 56.0857 44.7659 56.7255 45.6912 56.7255Z" fill="#ED1C24"/>
<path d="M113.539 71.1765L128.751 65.5686C128.751 65.5686 129.076 66.3774 128.265 59.7451C128.265 59.7451 131.507 59.7451 131.318 60.4191L131.345 64.7328L144.396 60.7157" stroke="#FBB03B" stroke-width="4" stroke-miterlimit="10"/>
<path d="M114.106 73.9534L128.751 68.8039" stroke="#FBB03B" stroke-width="4" stroke-miterlimit="10"/>
<path d="M144.558 64.3015L131.669 67.8333L131.318 103.233" stroke="#EFBA27" stroke-width="4" stroke-miterlimit="10"/>
<path d="M129.319 90.5613V103.233" stroke="#FBB03B" stroke-width="4" stroke-miterlimit="10"/>
<defs>
<linearGradient id="paint0_linear_1_57" x1="77.1522" y1="126.493" x2="95.8118" y2="126.493" gradientUnits="userSpaceOnUse">
<stop stop-color="#D29E49"/>
<stop offset="0.2613" stop-color="#BB8831"/>
<stop offset="0.6852" stop-color="#FAF286"/>
<stop offset="1" stop-color="#905E25"/>
</linearGradient>
<linearGradient id="paint1_linear_1_57" x1="69.081" y1="138.351" x2="93.7377" y2="138.351" gradientUnits="userSpaceOnUse">
<stop stop-color="#D29E49"/>
<stop offset="0.2613" stop-color="#BB8831"/>
<stop offset="0.6852" stop-color="#FAF286"/>
<stop offset="1" stop-color="#905E25"/>
</linearGradient>
<linearGradient id="paint2_linear_1_57" x1="66.0156" y1="119.624" x2="78.2337" y2="119.624" gradientUnits="userSpaceOnUse">
<stop stop-color="#D29E49"/>
<stop offset="0.2613" stop-color="#BB8831"/>
<stop offset="0.6852" stop-color="#FAF286"/>
<stop offset="1" stop-color="#905E25"/>
</linearGradient>
<linearGradient id="paint3_linear_1_57" x1="51.1583" y1="129.937" x2="74.7141" y2="129.937" gradientUnits="userSpaceOnUse">
<stop stop-color="#D29E49"/>
<stop offset="0.2613" stop-color="#BB8831"/>
<stop offset="0.6852" stop-color="#FAF286"/>
<stop offset="1" stop-color="#905E25"/>
</linearGradient>
<linearGradient id="paint4_linear_1_57" x1="56.9918" y1="110.73" x2="64.6818" y2="110.73" gradientUnits="userSpaceOnUse">
<stop stop-color="#D29E49"/>
<stop offset="0.2613" stop-color="#BB8831"/>
<stop offset="0.6852" stop-color="#FAF286"/>
<stop offset="1" stop-color="#905E25"/>
</linearGradient>
<linearGradient id="paint5_linear_1_57" x1="39.7692" y1="118.156" x2="59.9336" y2="118.156" gradientUnits="userSpaceOnUse">
<stop stop-color="#D29E49"/>
<stop offset="0.2613" stop-color="#BB8831"/>
<stop offset="0.6852" stop-color="#FAF286"/>
<stop offset="1" stop-color="#905E25"/>
</linearGradient>
<linearGradient id="paint6_linear_1_57" x1="48.8032" y1="100.255" x2="55.2231" y2="100.255" gradientUnits="userSpaceOnUse">
<stop stop-color="#D29E49"/>
<stop offset="0.2613" stop-color="#BB8831"/>
<stop offset="0.6852" stop-color="#FAF286"/>
<stop offset="1" stop-color="#905E25"/>
</linearGradient>
<linearGradient id="paint7_linear_1_57" x1="32.9485" y1="104.954" x2="49.5933" y2="104.954" gradientUnits="userSpaceOnUse">
<stop stop-color="#D29E49"/>
<stop offset="0.2613" stop-color="#BB8831"/>
<stop offset="0.6852" stop-color="#FAF286"/>
<stop offset="1" stop-color="#905E25"/>
</linearGradient>
<linearGradient id="paint8_linear_1_57" x1="43.2368" y1="90.079" x2="50.3156" y2="90.079" gradientUnits="userSpaceOnUse">
<stop stop-color="#D29E49"/>
<stop offset="0.2613" stop-color="#BB8831"/>
<stop offset="0.6852" stop-color="#FAF286"/>
<stop offset="1" stop-color="#905E25"/>
</linearGradient>
<linearGradient id="paint9_linear_1_57" x1="30.6182" y1="91.406" x2="42.6746" y2="91.406" gradientUnits="userSpaceOnUse">
<stop stop-color="#D29E49"/>
<stop offset="0.2613" stop-color="#BB8831"/>
<stop offset="0.6852" stop-color="#FAF286"/>
<stop offset="1" stop-color="#905E25"/>
</linearGradient>
<linearGradient id="paint10_linear_1_57" x1="41.0671" y1="79.0245" x2="49.9082" y2="79.0245" gradientUnits="userSpaceOnUse">
<stop stop-color="#D29E49"/>
<stop offset="0.2613" stop-color="#BB8831"/>
<stop offset="0.6852" stop-color="#FAF286"/>
<stop offset="1" stop-color="#905E25"/>
</linearGradient>
<linearGradient id="paint11_linear_1_57" x1="30.9856" y1="78.6115" x2="40.3935" y2="78.6115" gradientUnits="userSpaceOnUse">
<stop stop-color="#D29E49"/>
<stop offset="0.2613" stop-color="#BB8831"/>
<stop offset="0.6852" stop-color="#FAF286"/>
<stop offset="1" stop-color="#905E25"/>
</linearGradient>
<linearGradient id="paint12_linear_1_57" x1="40.5164" y1="68.9304" x2="50.5551" y2="68.9304" gradientUnits="userSpaceOnUse">
<stop stop-color="#D29E49"/>
<stop offset="0.2613" stop-color="#BB8831"/>
<stop offset="0.6852" stop-color="#FAF286"/>
<stop offset="1" stop-color="#905E25"/>
</linearGradient>
<linearGradient id="paint13_linear_1_57" x1="33.9615" y1="66.9204" x2="40.1978" y2="66.9204" gradientUnits="userSpaceOnUse">
<stop stop-color="#D29E49"/>
<stop offset="0.2613" stop-color="#BB8831"/>
<stop offset="0.6852" stop-color="#FAF286"/>
<stop offset="1" stop-color="#905E25"/>
</linearGradient>
<linearGradient id="paint14_linear_1_57" x1="42.7996" y1="59.0629" x2="53.4574" y2="59.0629" gradientUnits="userSpaceOnUse">
<stop stop-color="#D29E49"/>
<stop offset="0.2613" stop-color="#BB8831"/>
<stop offset="0.6852" stop-color="#FAF286"/>
<stop offset="1" stop-color="#905E25"/>
</linearGradient>
<linearGradient id="paint15_linear_1_57" x1="37.932" y1="56.1139" x2="42.9476" y2="56.1139" gradientUnits="userSpaceOnUse">
<stop stop-color="#D29E49"/>
<stop offset="0.2613" stop-color="#BB8831"/>
<stop offset="0.6852" stop-color="#FAF286"/>
<stop offset="1" stop-color="#905E25"/>
</linearGradient>
<linearGradient id="paint16_linear_1_57" x1="46.8313" y1="50.2985" x2="57.4457" y2="50.2985" gradientUnits="userSpaceOnUse">
<stop stop-color="#D29E49"/>
<stop offset="0.2613" stop-color="#BB8831"/>
<stop offset="0.6852" stop-color="#FAF286"/>
<stop offset="1" stop-color="#905E25"/>
</linearGradient>
<linearGradient id="paint17_linear_1_57" x1="43.6402" y1="46.5556" x2="47.7515" y2="46.5556" gradientUnits="userSpaceOnUse">
<stop stop-color="#D29E49"/>
<stop offset="0.2613" stop-color="#BB8831"/>
<stop offset="0.6852" stop-color="#FAF286"/>
<stop offset="1" stop-color="#905E25"/>
</linearGradient>
<linearGradient id="paint18_linear_1_57" x1="51.4137" y1="42.6881" x2="61.8694" y2="42.6881" gradientUnits="userSpaceOnUse">
<stop stop-color="#D29E49"/>
<stop offset="0.2613" stop-color="#BB8831"/>
<stop offset="0.6852" stop-color="#FAF286"/>
<stop offset="1" stop-color="#905E25"/>
</linearGradient>
<linearGradient id="paint19_linear_1_57" x1="49.1666" y1="38.4655" x2="53.0737" y2="38.4655" gradientUnits="userSpaceOnUse">
<stop stop-color="#D29E49"/>
<stop offset="0.2613" stop-color="#BB8831"/>
<stop offset="0.6852" stop-color="#FAF286"/>
<stop offset="1" stop-color="#905E25"/>
</linearGradient>
<linearGradient id="paint20_linear_1_57" x1="57.1386" y1="36.7758" x2="67.3806" y2="36.7758" gradientUnits="userSpaceOnUse">
<stop stop-color="#D29E49"/>
<stop offset="0.2613" stop-color="#BB8831"/>
<stop offset="0.6852" stop-color="#FAF286"/>
<stop offset="1" stop-color="#905E25"/>
</linearGradient>
<linearGradient id="paint21_linear_1_57" x1="55.6478" y1="32.1492" x2="59.8472" y2="32.1492" gradientUnits="userSpaceOnUse">
<stop stop-color="#D29E49"/>
<stop offset="0.2613" stop-color="#BB8831"/>
<stop offset="0.6852" stop-color="#FAF286"/>
<stop offset="1" stop-color="#905E25"/>
</linearGradient>
<linearGradient id="paint22_linear_1_57" x1="63.6423" y1="31.361" x2="72.8705" y2="31.361" gradientUnits="userSpaceOnUse">
<stop stop-color="#D29E49"/>
<stop offset="0.2613" stop-color="#BB8831"/>
<stop offset="0.6852" stop-color="#FAF286"/>
<stop offset="1" stop-color="#905E25"/>
</linearGradient>
<linearGradient id="paint23_linear_1_57" x1="62.7295" y1="26.9919" x2="67.2781" y2="26.9919" gradientUnits="userSpaceOnUse">
<stop stop-color="#D29E49"/>
<stop offset="0.2613" stop-color="#BB8831"/>
<stop offset="0.6852" stop-color="#FAF286"/>
<stop offset="1" stop-color="#905E25"/>
</linearGradient>
<linearGradient id="paint24_linear_1_57" x1="71.6167" y1="26.3995" x2="79.4803" y2="26.3995" gradientUnits="userSpaceOnUse">
<stop stop-color="#D29E49"/>
<stop offset="0.2613" stop-color="#BB8831"/>
<stop offset="0.6852" stop-color="#FAF286"/>
<stop offset="1" stop-color="#905E25"/>
</linearGradient>
<linearGradient id="paint25_linear_1_57" x1="71.034" y1="22.6146" x2="75.3791" y2="22.6146" gradientUnits="userSpaceOnUse">
<stop stop-color="#D29E49"/>
<stop offset="0.2613" stop-color="#BB8831"/>
<stop offset="0.6852" stop-color="#FAF286"/>
<stop offset="1" stop-color="#905E25"/>
</linearGradient>
<linearGradient id="paint26_linear_1_57" x1="78.8257" y1="23.2298" x2="85.8383" y2="23.2298" gradientUnits="userSpaceOnUse">
<stop stop-color="#D29E49"/>
<stop offset="0.2613" stop-color="#BB8831"/>
<stop offset="0.6852" stop-color="#FAF286"/>
<stop offset="1" stop-color="#905E25"/>
</linearGradient>
<linearGradient id="paint27_linear_1_57" x1="78.6675" y1="19.7528" x2="83.6654" y2="19.7528" gradientUnits="userSpaceOnUse">
<stop stop-color="#D29E49"/>
<stop offset="0.2613" stop-color="#BB8831"/>
<stop offset="0.6852" stop-color="#FAF286"/>
<stop offset="1" stop-color="#905E25"/>
</linearGradient>
<linearGradient id="paint28_linear_1_57" x1="83.2104" y1="19.7525" x2="88.5199" y2="19.7525" gradientUnits="userSpaceOnUse">
<stop stop-color="#D29E49"/>
<stop offset="0.2613" stop-color="#BB8831"/>
<stop offset="0.6852" stop-color="#FAF286"/>
<stop offset="1" stop-color="#905E25"/>
</linearGradient>
<linearGradient id="paint29_linear_1_57" x1="113.735" y1="126.493" x2="132.395" y2="126.493" gradientUnits="userSpaceOnUse">
<stop stop-color="#D29E49"/>
<stop offset="0.2613" stop-color="#BB8831"/>
<stop offset="0.6852" stop-color="#FAF286"/>
<stop offset="1" stop-color="#905E25"/>
</linearGradient>
<linearGradient id="paint30_linear_1_57" x1="115.809" y1="138.351" x2="140.466" y2="138.351" gradientUnits="userSpaceOnUse">
<stop stop-color="#D29E49"/>
<stop offset="0.2613" stop-color="#BB8831"/>
<stop offset="0.6852" stop-color="#FAF286"/>
<stop offset="1" stop-color="#905E25"/>
</linearGradient>
<linearGradient id="paint31_linear_1_57" x1="131.313" y1="119.624" x2="143.531" y2="119.624" gradientUnits="userSpaceOnUse">
<stop stop-color="#D29E49"/>
<stop offset="0.2613" stop-color="#BB8831"/>
<stop offset="0.6852" stop-color="#FAF286"/>
<stop offset="1" stop-color="#905E25"/>
</linearGradient>
<linearGradient id="paint32_linear_1_57" x1="134.833" y1="129.937" x2="158.389" y2="129.937" gradientUnits="userSpaceOnUse">
<stop stop-color="#D29E49"/>
<stop offset="0.2613" stop-color="#BB8831"/>
<stop offset="0.6852" stop-color="#FAF286"/>
<stop offset="1" stop-color="#905E25"/>
</linearGradient>
<linearGradient id="paint33_linear_1_57" x1="144.865" y1="110.73" x2="152.555" y2="110.73" gradientUnits="userSpaceOnUse">
<stop stop-color="#D29E49"/>
<stop offset="0.2613" stop-color="#BB8831"/>
<stop offset="0.6852" stop-color="#FAF286"/>
<stop offset="1" stop-color="#905E25"/>
</linearGradient>
<linearGradient id="paint34_linear_1_57" x1="149.613" y1="118.156" x2="169.778" y2="118.156" gradientUnits="userSpaceOnUse">
<stop stop-color="#D29E49"/>
<stop offset="0.2613" stop-color="#BB8831"/>
<stop offset="0.6852" stop-color="#FAF286"/>
<stop offset="1" stop-color="#905E25"/>
</linearGradient>
<linearGradient id="paint35_linear_1_57" x1="154.324" y1="100.255" x2="160.744" y2="100.255" gradientUnits="userSpaceOnUse">
<stop stop-color="#D29E49"/>
<stop offset="0.2613" stop-color="#BB8831"/>
<stop offset="0.6852" stop-color="#FAF286"/>
<stop offset="1" stop-color="#905E25"/>
</linearGradient>
<linearGradient id="paint36_linear_1_57" x1="159.954" y1="104.954" x2="176.598" y2="104.954" gradientUnits="userSpaceOnUse">
<stop stop-color="#D29E49"/>
<stop offset="0.2613" stop-color="#BB8831"/>
<stop offset="0.6852" stop-color="#FAF286"/>
<stop offset="1" stop-color="#905E25"/>
</linearGradient>
<linearGradient id="paint37_linear_1_57" x1="159.231" y1="90.079" x2="166.31" y2="90.079" gradientUnits="userSpaceOnUse">
<stop stop-color="#D29E49"/>
<stop offset="0.2613" stop-color="#BB8831"/>
<stop offset="0.6852" stop-color="#FAF286"/>
<stop offset="1" stop-color="#905E25"/>
</linearGradient>
<linearGradient id="paint38_linear_1_57" x1="166.872" y1="91.406" x2="178.929" y2="91.406" gradientUnits="userSpaceOnUse">
<stop stop-color="#D29E49"/>
<stop offset="0.2613" stop-color="#BB8831"/>
<stop offset="0.6852" stop-color="#FAF286"/>
<stop offset="1" stop-color="#905E25"/>
</linearGradient>
<linearGradient id="paint39_linear_1_57" x1="159.639" y1="79.0245" x2="168.48" y2="79.0245" gradientUnits="userSpaceOnUse">
<stop stop-color="#D29E49"/>
<stop offset="0.2613" stop-color="#BB8831"/>
<stop offset="0.6852" stop-color="#FAF286"/>
<stop offset="1" stop-color="#905E25"/>
</linearGradient>
<linearGradient id="paint40_linear_1_57" x1="169.153" y1="78.6115" x2="178.561" y2="78.6115" gradientUnits="userSpaceOnUse">
<stop stop-color="#D29E49"/>
<stop offset="0.2613" stop-color="#BB8831"/>
<stop offset="0.6852" stop-color="#FAF286"/>
<stop offset="1" stop-color="#905E25"/>
</linearGradient>
<linearGradient id="paint41_linear_1_57" x1="158.992" y1="68.9304" x2="169.03" y2="68.9304" gradientUnits="userSpaceOnUse">
<stop stop-color="#D29E49"/>
<stop offset="0.2613" stop-color="#BB8831"/>
<stop offset="0.6852" stop-color="#FAF286"/>
<stop offset="1" stop-color="#905E25"/>
</linearGradient>
<linearGradient id="paint42_linear_1_57" x1="169.349" y1="66.9204" x2="175.585" y2="66.9204" gradientUnits="userSpaceOnUse">
<stop stop-color="#D29E49"/>
<stop offset="0.2613" stop-color="#BB8831"/>
<stop offset="0.6852" stop-color="#FAF286"/>
<stop offset="1" stop-color="#905E25"/>
</linearGradient>
<linearGradient id="paint43_linear_1_57" x1="156.089" y1="59.0629" x2="166.747" y2="59.0629" gradientUnits="userSpaceOnUse">
<stop stop-color="#D29E49"/>
<stop offset="0.2613" stop-color="#BB8831"/>
<stop offset="0.6852" stop-color="#FAF286"/>
<stop offset="1" stop-color="#905E25"/>
</linearGradient>
<linearGradient id="paint44_linear_1_57" x1="166.599" y1="56.1139" x2="171.615" y2="56.1139" gradientUnits="userSpaceOnUse">
<stop stop-color="#D29E49"/>
<stop offset="0.2613" stop-color="#BB8831"/>
<stop offset="0.6852" stop-color="#FAF286"/>
<stop offset="1" stop-color="#905E25"/>
</linearGradient>
<linearGradient id="paint45_linear_1_57" x1="152.101" y1="50.2985" x2="162.716" y2="50.2985" gradientUnits="userSpaceOnUse">
<stop stop-color="#D29E49"/>
<stop offset="0.2613" stop-color="#BB8831"/>
<stop offset="0.6852" stop-color="#FAF286"/>
<stop offset="1" stop-color="#905E25"/>
</linearGradient>
<linearGradient id="paint46_linear_1_57" x1="161.795" y1="46.5556" x2="165.907" y2="46.5556" gradientUnits="userSpaceOnUse">
<stop stop-color="#D29E49"/>
<stop offset="0.2613" stop-color="#BB8831"/>
<stop offset="0.6852" stop-color="#FAF286"/>
<stop offset="1" stop-color="#905E25"/>
</linearGradient>
<linearGradient id="paint47_linear_1_57" x1="147.678" y1="42.6881" x2="158.133" y2="42.6881" gradientUnits="userSpaceOnUse">
<stop stop-color="#D29E49"/>
<stop offset="0.2613" stop-color="#BB8831"/>
<stop offset="0.6852" stop-color="#FAF286"/>
<stop offset="1" stop-color="#905E25"/>
</linearGradient>
<linearGradient id="paint48_linear_1_57" x1="156.473" y1="38.4655" x2="160.38" y2="38.4655" gradientUnits="userSpaceOnUse">
<stop stop-color="#D29E49"/>
<stop offset="0.2613" stop-color="#BB8831"/>
<stop offset="0.6852" stop-color="#FAF286"/>
<stop offset="1" stop-color="#905E25"/>
</linearGradient>
<linearGradient id="paint49_linear_1_57" x1="142.166" y1="36.7758" x2="152.408" y2="36.7758" gradientUnits="userSpaceOnUse">
<stop stop-color="#D29E49"/>
<stop offset="0.2613" stop-color="#BB8831"/>
<stop offset="0.6852" stop-color="#FAF286"/>
<stop offset="1" stop-color="#905E25"/>
</linearGradient>
<linearGradient id="paint50_linear_1_57" x1="149.7" y1="32.1492" x2="153.899" y2="32.1492" gradientUnits="userSpaceOnUse">
<stop stop-color="#D29E49"/>
<stop offset="0.2613" stop-color="#BB8831"/>
<stop offset="0.6852" stop-color="#FAF286"/>
<stop offset="1" stop-color="#905E25"/>
</linearGradient>
<linearGradient id="paint51_linear_1_57" x1="136.676" y1="31.361" x2="145.905" y2="31.361" gradientUnits="userSpaceOnUse">
<stop stop-color="#D29E49"/>
<stop offset="0.2613" stop-color="#BB8831"/>
<stop offset="0.6852" stop-color="#FAF286"/>
<stop offset="1" stop-color="#905E25"/>
</linearGradient>
<linearGradient id="paint52_linear_1_57" x1="142.269" y1="26.9919" x2="146.817" y2="26.9919" gradientUnits="userSpaceOnUse">
<stop stop-color="#D29E49"/>
<stop offset="0.2613" stop-color="#BB8831"/>
<stop offset="0.6852" stop-color="#FAF286"/>
<stop offset="1" stop-color="#905E25"/>
</linearGradient>
<linearGradient id="paint53_linear_1_57" x1="130.067" y1="26.3995" x2="137.93" y2="26.3995" gradientUnits="userSpaceOnUse">
<stop stop-color="#D29E49"/>
<stop offset="0.2613" stop-color="#BB8831"/>
<stop offset="0.6852" stop-color="#FAF286"/>
<stop offset="1" stop-color="#905E25"/>
</linearGradient>
<linearGradient id="paint54_linear_1_57" x1="134.168" y1="22.6146" x2="138.513" y2="22.6146" gradientUnits="userSpaceOnUse">
<stop stop-color="#D29E49"/>
<stop offset="0.2613" stop-color="#BB8831"/>
<stop offset="0.6852" stop-color="#FAF286"/>
<stop offset="1" stop-color="#905E25"/>
</linearGradient>
<linearGradient id="paint55_linear_1_57" x1="123.709" y1="23.2298" x2="130.721" y2="23.2298" gradientUnits="userSpaceOnUse">
<stop stop-color="#D29E49"/>
<stop offset="0.2613" stop-color="#BB8831"/>
<stop offset="0.6852" stop-color="#FAF286"/>
<stop offset="1" stop-color="#905E25"/>
</linearGradient>
<linearGradient id="paint56_linear_1_57" x1="125.882" y1="19.7528" x2="130.879" y2="19.7528" gradientUnits="userSpaceOnUse">
<stop stop-color="#D29E49"/>
<stop offset="0.2613" stop-color="#BB8831"/>
<stop offset="0.6852" stop-color="#FAF286"/>
<stop offset="1" stop-color="#905E25"/>
</linearGradient>
<linearGradient id="paint57_linear_1_57" x1="121.027" y1="19.7525" x2="126.337" y2="19.7525" gradientUnits="userSpaceOnUse">
<stop stop-color="#D29E49"/>
<stop offset="0.2613" stop-color="#BB8831"/>
<stop offset="0.6852" stop-color="#FAF286"/>
<stop offset="1" stop-color="#905E25"/>
</linearGradient>
<linearGradient id="paint58_linear_1_57" x1="94.4172" y1="142.858" x2="112.973" y2="142.858" gradientUnits="userSpaceOnUse">
<stop stop-color="#D29E49"/>
<stop offset="0.2613" stop-color="#BB8831"/>
<stop offset="0.6852" stop-color="#FAF286"/>
<stop offset="1" stop-color="#905E25"/>
</linearGradient>
<linearGradient id="paint59_linear_1_57" x1="96.1021" y1="142.858" x2="114.658" y2="142.858" gradientUnits="userSpaceOnUse">
<stop stop-color="#D29E49"/>
<stop offset="0.2613" stop-color="#BB8831"/>
<stop offset="0.6852" stop-color="#FAF286"/>
<stop offset="1" stop-color="#905E25"/>
</linearGradient>
<linearGradient id="paint60_linear_1_57" x1="81.4024" y1="118.139" x2="86.6963" y2="118.139" gradientUnits="userSpaceOnUse">
<stop stop-color="#D29E49"/>
<stop offset="0.2613" stop-color="#BB8831"/>
<stop offset="0.6852" stop-color="#FAF286"/>
<stop offset="1" stop-color="#905E25"/>
</linearGradient>
<linearGradient id="paint61_linear_1_57" x1="87.4205" y1="118.139" x2="94.0465" y2="118.139" gradientUnits="userSpaceOnUse">
<stop stop-color="#D29E49"/>
<stop offset="0.2613" stop-color="#BB8831"/>
<stop offset="0.6852" stop-color="#FAF286"/>
<stop offset="1" stop-color="#905E25"/>
</linearGradient>
<linearGradient id="paint62_linear_1_57" x1="94.2805" y1="118.139" x2="99.5744" y2="118.139" gradientUnits="userSpaceOnUse">
<stop stop-color="#D29E49"/>
<stop offset="0.2613" stop-color="#BB8831"/>
<stop offset="0.6852" stop-color="#FAF286"/>
<stop offset="1" stop-color="#905E25"/>
</linearGradient>
<linearGradient id="paint63_linear_1_57" x1="100.31" y1="118.139" x2="107.059" y2="118.139" gradientUnits="userSpaceOnUse">
<stop stop-color="#D29E49"/>
<stop offset="0.2613" stop-color="#BB8831"/>
<stop offset="0.6852" stop-color="#FAF286"/>
<stop offset="1" stop-color="#905E25"/>
</linearGradient>
<linearGradient id="paint64_linear_1_57" x1="108.052" y1="118.139" x2="113.925" y2="118.139" gradientUnits="userSpaceOnUse">
<stop stop-color="#D29E49"/>
<stop offset="0.2613" stop-color="#BB8831"/>
<stop offset="0.6852" stop-color="#FAF286"/>
<stop offset="1" stop-color="#905E25"/>
</linearGradient>
<linearGradient id="paint65_linear_1_57" x1="114.071" y1="118.156" x2="121.217" y2="118.156" gradientUnits="userSpaceOnUse">
<stop stop-color="#D29E49"/>
<stop offset="0.2613" stop-color="#BB8831"/>
<stop offset="0.6852" stop-color="#FAF286"/>
<stop offset="1" stop-color="#905E25"/>
</linearGradient>
<linearGradient id="paint66_linear_1_57" x1="121.696" y1="118.183" x2="127.2" y2="118.183" gradientUnits="userSpaceOnUse">
<stop stop-color="#D29E49"/>
<stop offset="0.2613" stop-color="#BB8831"/>
<stop offset="0.6852" stop-color="#FAF286"/>
<stop offset="1" stop-color="#905E25"/>
</linearGradient>
</defs>
</svg>
